<?xml version="1.0" encoding="UTF-8"?>
<svg id="Vrstva_1" xmlns="http://www.w3.org/2000/svg" version="1.1" viewBox="0 0 142.46 161.6">
  <!-- Generator: Adobe Illustrator 29.8.1, SVG Export Plug-In . SVG Version: 2.1.1 Build 2)  -->
  <defs>
    <style>
      .st0 {
        fill: #fff;
      }

      .st0, .st1, .st2 {
        stroke: #734c3f;
        stroke-miterlimit: 10;
        stroke-width: 3px;
      }

      .st3 {
        fill: #1d1d1b;
      }

      .st1 {
        fill: #f9cbc7;
      }

      .st2 {
        fill: none;
      }
    </style>
  </defs>
  <path class="st1" d="M71.23,160.1c34.26,0,62.83-24.32,69.4-56.64H1.84c6.57,32.32,35.14,56.64,69.4,56.64Z"/>
  <rect class="st3" x="70.77" y="7.63" width=".92" height="18.8"/>
  <path class="st1" d="M80.8,35.62c0-5.28-4.28-9.57-9.57-9.57s-9.57,4.28-9.57,9.57c0,.42.03.83.08,1.24h18.97c.05-.41.08-.82.08-1.24Z"/>
  <path class="st1" d="M134.99,95.22c0-35.21-28.55-63.76-63.76-63.76S7.47,60,7.47,95.22c0,2.79.2,5.54.55,8.24h126.42c.35-2.7.55-5.45.55-8.24Z"/>
  <circle class="st1" cx="71.23" cy="5.54" r="4.04"/>
  <circle class="st0" cx="41" cy="81.68" r="16.8"/>
  <circle class="st2" cx="41" cy="81.68" r="14.94"/>
  <circle class="st0" cx="105.33" cy="79.07" r="19.4"/>
  <circle class="st2" cx="105.33" cy="79.07" r="21.49"/>
</svg>